<?xml version="1.0" encoding="utf-8"?>
<!-- Generator: Adobe Illustrator 22.0.1, SVG Export Plug-In . SVG Version: 6.00 Build 0)  -->
<svg version="1.1" id="Layer_1" xmlns="http://www.w3.org/2000/svg" xmlns:xlink="http://www.w3.org/1999/xlink" x="0px" y="0px"
	 viewBox="0 0 400 400" style="enable-background:new 0 0 400 400;" xml:space="preserve">
<g>
	<path d="M391.4,316.4c-3.6-3.7-6.1-4.7-8.1-5.5c-2.4-1-3.8-1.5-6.1-7c-1.8-4.3-4.2-6.9-7.2-7.8c-3.4-1-7.5,0.3-12.6,3.9
		c-6,4.3-20.2,0.4-24.4-1.4l-0.2-0.1c-12.1-5.2-21.6-15.3-27.4-29.4c-8.6-20.9-33.2-34.8-52.4-37.6v-27.8l-2.9-6.5
		c0.7-1,2.1-3.2,2.1-5c0-1.6-1.1-3.7-1.8-4.8c1.1-0.8,1.8-2,1.8-3.5c0-1.6-0.9-2.9-2.1-3.6c0.9-1.9,2.7-6.6,2.7-15.7
		c0-6.8-1.3-10.1-2.4-13.1c-0.9-2.5-1.7-4.6-1.7-8.4c0-8.2,3.5-13.7,3.5-13.7l0.3-0.5l-2.3-4.5c1.5-1.2,2.4-2.9,2.4-4.9
		c0-2.1-1-3.9-2.5-5l3-5V63.9H147.1v45.4l3,5c-1.5,1.2-2.5,3-2.5,5c0,2,0.9,3.8,2.4,4.9l-2.3,4.5l0.3,0.5c0,0.1,3.5,5.5,3.5,13.7
		c0,3.8-0.8,5.9-1.7,8.4c-1.1,3-2.4,6.3-2.4,13.1c0,9.1,1.7,13.8,2.7,15.7c-1.3,0.7-2.1,2.1-2.1,3.6c0,1.4,0.7,2.7,1.8,3.5
		c-0.7,1.2-1.8,3.2-1.8,4.8c0,1.9,1.4,4.1,2.1,5l-2.9,6.5v27.8c-19.2,2.7-43.8,16.7-52.4,37.6c-5.8,14.1-15.3,24.2-27.4,29.4
		l-0.2,0.1c-4.2,1.8-18.4,5.7-24.4,1.4c-5.1-3.6-9.2-4.9-12.6-3.9c-3,0.9-5.4,3.5-7.2,7.8c-2.3,5.5-3.7,6.1-6.1,7
		c-2,0.8-4.5,1.8-8.1,5.5c-8.3,8.5-7.1,18.5-7.1,18.9l0.1,0.9H62l0.1-0.9c0.5-6.5,3-10.2,8-12.1c3-1.1,7.1-0.8,11-0.4
		c2.8,0.2,5.4,0.5,7.5,0.2c20.1-2.9,31.6-12,34.6-14.7l2.7,3l0.7-0.9c7-8.5,18.6-9.4,21.1-9.4l4.7,5.7c-2.2,1.3-3.6,3.7-3.6,6.4
		c0,4.1,3.4,7.5,7.5,7.5h19.3v15.2h49v-15.2h19.3c4.1,0,7.5-3.4,7.5-7.5c0-2.7-1.5-5.1-3.6-6.4l4.7-5.7c2.4,0.1,14.1,1,21.1,9.4
		l0.7,0.9l2.7-3c3,2.7,14.5,11.8,34.6,14.7c2.1,0.3,4.7,0.1,7.5-0.2c4-0.4,8.1-0.7,11,0.4c5,1.9,7.5,5.6,8,12.1l0.1,0.9h60.3
		l0.1-0.9C398.5,334.8,399.7,324.8,391.4,316.4z M243.8,305.3h-21.5c-1.4-1.2-3.4-1.9-5.3-1.9c-1.8,0-2.9,0.8-3.9,1.6
		c-0.1,0.1-0.3,0.2-0.4,0.3h-1v-2.7c4.8-0.6,7.6-1.5,8.9-2l0.1,0c5.6,2,11,2.6,15.7,2.6c5.4,0,9.8-0.9,12.6-1.6l-3.2,3.9
		C245.1,305.4,244.4,305.3,243.8,305.3z M222.5,320.3v13.2h-45v-13.2v-2v-7.9c0-1.3,0.4-2.3,1-3.1c1.2-1.4,3.1-1.9,4.4-1.9
		c1.1,0,1.9,0.5,2.8,1.2c0.3,0.2,0.6,0.5,1,0.7c0.5,0.3,1,0.5,1.6,0.7c0.3,0.1,0.6,0.2,1,0.2c0.2,0,0.4,0,0.7,0c0.1,0,0.2,0,0.3,0
		c1,0,2.1-0.3,3-1c0.7-0.5,1.3-1.1,1.7-2c0.3-0.6,0.5-1.3,0.6-2.1c0-0.3,0.1-0.7,0.1-1c0-0.3,0-0.7,0.1-1c0.5-3.6,3.9-3.8,4.2-3.8
		c0.4,0,3.8,0.3,4.3,3.8c0,0.3,0.1,0.6,0.1,1c0,0.4,0,0.7,0.1,1c0.1,0.8,0.3,1.5,0.6,2.1c0.4,0.9,1,1.5,1.7,2c0.9,0.6,1.9,0.9,3,1
		c0.1,0,0.2,0,0.3,0c0.2,0,0.5,0,0.7,0c0.4,0,0.7-0.1,1-0.2c0.6-0.2,1.1-0.4,1.6-0.7c0.4-0.2,0.7-0.4,1-0.7c0.9-0.7,1.7-1.2,2.8-1.2
		c1.3,0,3.3,0.5,4.4,1.9c0.6,0.7,1,1.7,1,3.1v7.9V320.3z M180.1,204.6c1.7-0.7,7.6-2.5,19.9-2.5c12.2,0,18.2,1.9,19.9,2.6v94.2
		c-1,0.4-3.7,1.2-8.2,1.9v-69.3h-23.3v69.3c-4.6-0.6-7.2-1.5-8.2-1.9V204.6z M190.3,302.9v-2v-67.6h19.3v67.6v2v2.4v1
		c-0.7,0-1.6-0.3-2.3-1c-0.5-0.5-0.8-1.2-1-2.2c0-0.3-0.1-0.6-0.1-0.9c0-0.4,0-0.7-0.1-1.1c-0.5-4.3-4.2-5.7-6.3-5.7
		c-2,0.1-5.7,1.4-6.3,5.7c0,0.3-0.1,0.7-0.1,1.1c0,0.3,0,0.6-0.1,0.9c-0.1,1-0.5,1.7-1,2.2c-0.7,0.7-1.6,0.9-2.3,1v-1V302.9z
		 M250.9,299c-2.9,1-15.2,4.6-29,0v-94.4c3-1,16.2-4.8,29,0V299z M250.9,108.4c-2.7,1-14.4,4.8-28.5,0V65.9h28.5V108.4z
		 M220.3,108.3c-3.5,1-20.4,5-40.7,0V65.9h40.7V108.3z M149.1,65.9h28.5v42.5c-14.1,4.8-25.8,1-28.5,0V65.9z M150.4,110.9
		c2.7,0.8,7.2,1.8,12.8,1.8c4.5,0,9.8-0.7,15.5-2.7c7.8,2,15.1,2.6,21.5,2.6c11.4,0,19.5-2.2,21.1-2.6c5.7,2,11,2.7,15.5,2.7
		c5.6,0,10.1-1,12.8-1.8l-1.4,2.4c-0.6-0.2-1.3-0.3-2-0.3h-92.2c-0.7,0-1.4,0.1-2,0.3L150.4,110.9z M149.6,119.3
		c0-2.4,1.9-4.3,4.3-4.3h92.2c2.4,0,4.3,1.9,4.3,4.3s-1.9,4.3-4.3,4.3h-92.2C151.5,123.7,149.6,121.7,149.6,119.3z M153.9,125.7
		h92.2c0.8,0,1.5-0.1,2.1-0.4l1.3,2.5h-99.1l1.3-2.5C152.4,125.5,153.1,125.7,153.9,125.7z M149.4,164.5c0-6.4,1.1-9.4,2.3-12.4
		c1-2.5,1.9-4.9,1.9-9.1c0-6.3-1.9-11-3-13.3h99c-1.1,2.3-3,7-3,13.3c0,4.1,0.9,6.5,1.9,9.1c1.1,2.9,2.3,6,2.3,12.4
		c0,9.6-2,13.9-2.6,15.1c0,0-0.1,0-0.1,0h-95.7c0,0-0.1,0-0.1,0C151.3,178.4,149.4,174.1,149.4,164.5z M152.1,181.6h95.7
		c1.2,0,2.2,1,2.2,2.2s-1,2.2-2.2,2.2h-95.7c-1.2,0-2.2-1-2.2-2.2S150.9,181.6,152.1,181.6z M149.9,192.1c0-1.2,1.1-3.1,1.7-4.1
		c0.2,0,0.3,0,0.5,0h95.7c0.2,0,0.3,0,0.5,0c0.7,1,1.7,2.9,1.7,4.1c0,1.2-1.1,3-1.8,3.9h-96.6C151,195.1,149.9,193.4,149.9,192.1z
		 M151.8,198h96.3l1.8,4.1c-13.5-4.4-26.6-0.2-29.1,0.7c-1.6-0.7-7.7-2.8-20.9-2.8c-13.2,0-19.4,2.2-20.9,2.8
		c-2.5-0.9-15.5-5.1-29.1-0.7L151.8,198z M149.1,204.6c12.8-4.8,25.9-1,29,0V299c-13.7,4.6-26.1,1-29,0V204.6z M125.8,308l-2.5-2.8
		l-0.7,0.8c-0.1,0.1-11.7,11.6-34.2,14.9c-1.9,0.3-4.4,0.1-7.1-0.2c-4.2-0.4-8.5-0.8-11.9,0.5c-5.5,2.1-8.4,6.2-9.2,12.9H3.5
		c-0.1-2.5,0.3-10,6.6-16.3c3.3-3.4,5.6-4.3,7.4-5c2.9-1.1,4.7-2.1,7.2-8.1c1.5-3.7,3.5-5.9,5.9-6.6c2.8-0.8,6.4,0.4,10.9,3.6
		c7.3,5.2,22.9,0.3,26.4-1.2l0.2-0.1c12.6-5.4,22.5-15.9,28.5-30.5c9.3-22.5,35.4-34,50.5-36.3v65.3
		C143.8,298.9,133.1,300.1,125.8,308z M151.1,301.7c2.8,0.7,7.3,1.6,12.6,1.6c4.7,0,10.1-0.7,15.7-2.6l0.1,0c1.3,0.5,4.1,1.4,8.9,2
		v2.7h-1c-0.1-0.1-0.3-0.2-0.4-0.3c-1-0.7-2.2-1.6-3.9-1.6c-1.9,0-3.8,0.6-5.3,1.9h-21.5c-0.7,0-1.3,0.1-2,0.3L151.1,301.7z
		 M156.2,318.3c-3,0-5.5-2.5-5.5-5.5s2.5-5.5,5.5-5.5h19.9c-0.4,0.9-0.7,1.9-0.7,3.1v7.9H156.2z M249.3,312.8c0,3-2.5,5.5-5.5,5.5
		h-19.3v-7.9c0-1.2-0.2-2.2-0.7-3.1h19.9C246.8,307.3,249.3,309.8,249.3,312.8z M396.5,334.1h-56.6c-0.8-6.7-3.7-10.8-9.2-12.9
		c-3.4-1.3-7.7-0.9-11.9-0.5c-2.7,0.2-5.2,0.5-7.1,0.2c-22.5-3.2-34.1-14.7-34.2-14.9l-0.7-0.8l-2.5,2.8c-7.3-8-18-9.1-21.3-9.3
		v-65.3c15.1,2.3,41.3,13.9,50.5,36.3c6,14.6,15.9,25.1,28.5,30.5l0.2,0.1c3.5,1.5,19.1,6.4,26.4,1.2c4.5-3.2,8.1-4.4,10.9-3.6
		c2.4,0.7,4.4,2.9,5.9,6.6c2.5,6,4.4,7,7.2,8.1c1.8,0.7,4.1,1.6,7.4,5C396.2,324.1,396.6,331.6,396.5,334.1z"/>
</g>
</svg>
