<?xml version="1.0" encoding="utf-8"?>
<!-- Generator: Adobe Illustrator 22.0.1, SVG Export Plug-In . SVG Version: 6.00 Build 0)  -->
<svg version="1.1" id="Layer_1" xmlns="http://www.w3.org/2000/svg" xmlns:xlink="http://www.w3.org/1999/xlink" x="0px" y="0px"
	 viewBox="0 0 400 400" style="enable-background:new 0 0 400 400;" xml:space="preserve">
<g>
	<path d="M397.2,308.2c-1.4-3.2-4.6-7.3-12-8.4l-0.1,0c-3.5-0.1-6.5,0.1-9.7,0.3c-5.8,0.4-11.9,0.9-22.2-0.9
		c-14.8-2.6-28.3-12.6-48.2-35.5c-2-2.4-3.9-4.6-5.8-6.8C285,240,276.3,229.7,249.5,234v-30.6l-2.7-6.1c0.7-0.9,2-3,2-4.7
		c0-1.5-1-3.4-1.7-4.5c1-0.7,1.7-1.9,1.7-3.3c0-1.5-0.8-2.7-2-3.4c0.9-1.8,2.5-6.2,2.5-14.7c0-6.3-1.2-9.5-2.2-12.2
		c-0.9-2.3-1.6-4.3-1.6-7.8c0-7.7,3.2-12.8,3.3-12.8l0.3-0.5l-2.2-4.2c1.4-1.1,2.2-2.8,2.2-4.6c0-1.9-0.9-3.6-2.3-4.7l2.7-4.6V72.6
		h-99v42.6l2.7,4.6c-1.4,1.1-2.3,2.8-2.3,4.7c0,1.9,0.9,3.6,2.2,4.6l-2.2,4.2l0.3,0.5c0,0,3.3,5.1,3.3,12.8c0,3.5-0.7,5.5-1.6,7.8
		c-1,2.8-2.2,5.9-2.2,12.2c0,8.5,1.6,12.8,2.5,14.7c-1.2,0.7-2,2-2,3.4c0,1.3,0.7,2.5,1.7,3.3c-0.7,1.1-1.7,3-1.7,4.5
		c0,1.8,1.3,3.8,2,4.7l-2.7,6.1V234c-26.9-4.3-35.6,6-49.8,22.9c-1.8,2.1-3.7,4.4-5.8,6.8c-19.9,22.9-33.4,32.9-48.2,35.5
		c-10.3,1.8-16.3,1.4-22.2,0.9c-3.2-0.2-6.2-0.5-9.7-0.3l-0.1,0c-14.1,2.1-13.3,15.1-13.3,15.2v12.5h26.7v-4.7c0.7,0,1.3,0,2,0
		c26,0,53.3-11.9,83.4-36.4c13.5-11,23-14.4,28.6-15.2c4.6-0.7,7.3,0.1,8.4,0.5v22.3l0.4,0.2l4.5,5.4c-2,1.2-3.3,3.5-3.3,6
		c0,3.9,3.2,7.1,7.1,7.1h26.2v14.9h29.4v-14.9h26.2c3.9,0,7.1-3.2,7.1-7.1c0-2.5-1.3-4.8-3.3-6l4.5-5.4l0.4-0.2v-22.4
		c2.4-1,13.9-3.9,37,14.8c30.8,25.1,58.8,37,85.4,36.3v4.7h26.7l0-12.4C398.5,314.8,398.7,311.7,397.2,308.2z M247.5,204.3v88.2
		c-2.8,0.9-14.2,4.2-26.9,0v-88.2C223.4,203.3,235.6,199.8,247.5,204.3z M212.7,312.5v12.9h-25.4v-12.9v-2v-1.8
		c0-2.3,0.6-4.4,1.8-6.2c0.3-0.5,0.6-1,1-1.4c0.2-0.2,0.4-0.4,0.6-0.7c0.1-0.1,0.3-0.3,0.4-0.4c0.6-0.6,1.3-1.1,2.1-1.6
		c1.8-1.1,3.9-1.7,6.2-1.7h0.7h0.7c2.3,0,4.4,0.6,6.2,1.7c0.8,0.5,1.5,1,2.1,1.6c0.1,0.1,0.3,0.3,0.4,0.4c0.2,0.2,0.4,0.4,0.6,0.7
		c0.4,0.4,0.7,0.9,1,1.4c1.1,1.8,1.8,3.9,1.8,6.2v1.8V312.5z M209,294.2v2v1.1c-0.5-0.4-1-0.7-1.6-1c-2-1.1-4.3-1.7-6.7-1.7H200
		h-0.7c-2.4,0-4.7,0.6-6.7,1.7c-0.5,0.3-1.1,0.6-1.6,1v-1.1v-2v-63H209V294.2z M189,229.1v64.8c-4.2-0.6-6.6-1.3-7.6-1.7v-88
		c1.6-0.6,7.2-2.4,18.5-2.4c11.3,0,16.9,1.7,18.5,2.4v88c-1,0.4-3.4,1.1-7.6,1.7v-64.8H189z M219.6,202.5c-1.5-0.6-7.3-2.6-19.6-2.6
		c-12.3,0-18.1,2-19.6,2.6c-2.3-0.8-14.5-4.7-27.1-0.7l1.6-3.7h90l1.6,3.7C234.1,197.8,221.9,201.7,219.6,202.5z M153.2,184.8
		c0-1.1,0.9-2,2-2h89.5c1.1,0,2,0.9,2,2s-0.9,2-2,2h-89.5C154.1,186.8,153.2,185.9,153.2,184.8z M247.5,114.2
		c-2.6,1-13.5,4.4-26.5,0V74.6h26.5V114.2z M218.9,114.2c-3.4,0.9-19,4.6-37.9,0V74.6h37.9V114.2z M152.5,74.6h26.5v39.6
		c-13,4.4-23.9,1-26.5,0V74.6z M153.8,116.8c2.5,0.8,6.6,1.7,11.8,1.7c4.3,0,9.2-0.6,14.5-2.5c7.4,1.9,14.3,2.5,20.2,2.5
		c10.6,0,18-2,19.6-2.5c5.3,1.9,10.2,2.5,14.5,2.5c5.2,0,9.3-0.9,11.8-1.7l-1.2,2.1c-0.6-0.2-1.2-0.3-1.9-0.3h-86.2
		c-0.6,0-1.3,0.1-1.9,0.3L153.8,116.8z M152.9,124.5c0-2.2,1.8-4,4-4h86.2c2.2,0,4,1.8,4,4s-1.8,4-4,4h-86.2
		C154.7,128.5,152.9,126.7,152.9,124.5z M156.9,130.5h86.2c0.7,0,1.4-0.1,2-0.3l1.1,2.2h-92.5l1.1-2.2
		C155.5,130.4,156.2,130.5,156.9,130.5z M152.7,166.7c0-6,1.1-8.8,2.1-11.5c0.9-2.4,1.7-4.6,1.7-8.5c0-5.8-1.7-10.2-2.8-12.4h92.4
		c-1.1,2.2-2.8,6.6-2.8,12.4c0,3.9,0.8,6.1,1.7,8.5c1,2.7,2.1,5.6,2.1,11.5c0,8.8-1.8,12.9-2.4,14.1c0,0-0.1,0-0.1,0h-89.5
		c0,0-0.1,0-0.1,0C154.5,179.6,152.7,175.6,152.7,166.7z M155.2,188.8h89.5c0.1,0,0.3,0,0.4,0c0.7,1.1,1.6,2.8,1.6,3.8
		c0,1-0.9,2.6-1.6,3.6h-90.3c-0.7-1-1.6-2.6-1.6-3.6c0-1,0.9-2.7,1.6-3.8C155,188.8,155.1,188.8,155.2,188.8z M152.5,204.3
		c11.9-4.4,24.1-0.9,26.9,0v88.2c-12.7,4.2-24.2,0.9-26.9,0V204.3z M112.3,284.8c-30.8,25.1-58.7,36.8-85.1,35.9l-1,0v4.8H3.5
		l0-10.5c0-0.5-0.7-11.2,11.5-13.1c3.4-0.1,6.3,0.1,9.4,0.3c6,0.5,12.1,0.9,22.7-0.9c17.6-3.1,32.5-16.7,49.4-36.2
		c2.1-2.4,4-4.6,5.8-6.8c14.3-17,22.3-26.4,48.3-22.2v33.4C146.5,268.1,134.3,266.9,112.3,284.8z M154.4,295.1
		c2.6,0.7,6.7,1.5,11.6,1.5c4.4,0,9.4-0.6,14.7-2.5l0,0c1.2,0.5,3.8,1.3,8.2,1.8v2.4h-30c-0.6,0-1.2,0.1-1.8,0.2L154.4,295.1z
		 M159.1,310.5c-2.8,0-5.1-2.3-5.1-5.1s2.3-5.1,5.1-5.1H188c-1.7,2.3-2.7,5.2-2.7,8.3v1.8H159.1z M246,305.4c0,2.8-2.3,5.1-5.1,5.1
		h-26.2v-1.8c0-3.1-1-6-2.7-8.3h28.9C243.7,300.3,246,302.6,246,305.4z M242.7,298.6c-0.6-0.2-1.2-0.2-1.8-0.2h-30V296
		c4.4-0.6,7-1.4,8.2-1.8l0,0c5.3,1.9,10.3,2.5,14.7,2.5c4.9,0,9-0.8,11.6-1.5L242.7,298.6z M396.5,314.9v10.5h-22.7v-4.8l-1,0
		c-26.4,0.9-54.3-10.8-85.1-35.9c-22-17.9-34.2-16.6-38.2-15.4V236c26-4.2,34,5.2,48.3,22.2c1.8,2.1,3.7,4.4,5.8,6.8
		c16.9,19.4,31.7,33,49.4,36.2c10.5,1.9,16.7,1.4,22.7,0.9c3.1-0.2,6-0.5,9.4-0.3C397.2,303.6,396.5,314.4,396.5,314.9z"/>
</g>
</svg>
