<?xml version="1.0" encoding="utf-8"?>
<!-- Generator: Adobe Illustrator 22.0.1, SVG Export Plug-In . SVG Version: 6.00 Build 0)  -->
<svg version="1.1" id="Layer_1" xmlns="http://www.w3.org/2000/svg" xmlns:xlink="http://www.w3.org/1999/xlink" x="0px" y="0px"
	 viewBox="0 0 400 400" style="enable-background:new 0 0 400 400;" xml:space="preserve">
<style type="text/css">
	.st0{fill:none;stroke:#231F20;stroke-width:2;stroke-miterlimit:10;}
</style>
<g id="XMLID_47_">
	<path id="XMLID_41_" class="st0" d="M200,397.5L200,397.5c-55.3,0-100.5-45.2-100.5-100.5V103C99.5,47.7,144.7,2.5,200,2.5h0
		c55.3,0,100.5,45.2,100.5,100.5v194C300.5,352.3,255.3,397.5,200,397.5z"/>
	<path id="XMLID_42_" class="st0" d="M200,379.5L200,379.5c-45.4,0-82.6-37.2-82.6-82.6V103.2c0-45.4,37.2-82.6,82.6-82.6h0
		c45.4,0,82.6,37.2,82.6,82.6v193.7C282.6,342.3,245.4,379.5,200,379.5z"/>
	<path id="XMLID_43_" class="st0" d="M200,361.9L200,361.9c-36,0-65.5-29.5-65.5-65.5V103.6c0-36,29.5-65.5,65.5-65.5h0
		c36,0,65.5,29.5,65.5,65.5v192.8C265.5,332.4,236,361.9,200,361.9z"/>
	<circle id="XMLID_44_" class="st0" cx="274.1" cy="157.7" r="6.5"/>
	<circle id="XMLID_46_" class="st0" cx="274.1" cy="243.1" r="6.5"/>
	<circle id="XMLID_50_" class="st0" cx="126.3" cy="157.7" r="6.5"/>
	<circle id="XMLID_51_" class="st0" cx="132.6" cy="73.5" r="6.5"/>
	<circle id="XMLID_52_" class="st0" cx="267.4" cy="73.5" r="6.5"/>
	<circle id="XMLID_54_" class="st0" cx="132.6" cy="327.3" r="6.5"/>
	<circle id="XMLID_53_" class="st0" cx="267.4" cy="327.3" r="6.5"/>
	<circle id="XMLID_49_" class="st0" cx="126.3" cy="243.1" r="6.5"/>
	<circle id="XMLID_45_" class="st0" cx="200" cy="370.9" r="6.5"/>
	<circle id="XMLID_48_" class="st0" cx="200" cy="29.6" r="6.5"/>
</g>
</svg>
