<?xml version="1.0" encoding="utf-8"?>
<!-- Generator: Adobe Illustrator 22.0.1, SVG Export Plug-In . SVG Version: 6.00 Build 0)  -->
<svg version="1.1" id="Layer_1" xmlns="http://www.w3.org/2000/svg" xmlns:xlink="http://www.w3.org/1999/xlink" x="0px" y="0px"
	 viewBox="0 0 400 400" style="enable-background:new 0 0 400 400;" xml:space="preserve">
<style type="text/css">
	.st0{fill:none;stroke:#231F20;stroke-width:2;stroke-miterlimit:10;}
</style>
<g id="XMLID_5_">
	<polygon id="XMLID_1_" class="st0" points="150.2,320.3 79.7,249.8 79.7,150.2 150.2,79.7 249.8,79.7 320.3,150.2 320.3,249.8 
		249.8,320.3 	"/>
	<polygon id="XMLID_2_" class="st0" points="139.3,346.5 53.5,260.7 53.5,139.3 139.3,53.5 260.7,53.5 346.5,139.3 346.5,260.7 
		260.7,346.5 	"/>
	<polygon id="XMLID_3_" class="st0" points="127.5,375 25,272.5 25,127.5 127.5,25 272.5,25 375,127.5 375,272.5 272.5,375 	"/>
	<circle id="XMLID_4_" class="st0" cx="333.1" cy="145.3" r="10.7"/>
	<circle id="XMLID_7_" class="st0" cx="254.7" cy="66.9" r="10.7"/>
	<circle id="XMLID_8_" class="st0" cx="145.3" cy="66.9" r="10.7"/>
	<circle id="XMLID_9_" class="st0" cx="66.9" cy="145.3" r="10.7"/>
	<circle id="XMLID_10_" class="st0" cx="66.9" cy="254.7" r="10.7"/>
	<circle id="XMLID_11_" class="st0" cx="145.3" cy="333.1" r="10.7"/>
	<circle id="XMLID_12_" class="st0" cx="254.7" cy="333.1" r="10.7"/>
	<circle id="XMLID_13_" class="st0" cx="333.1" cy="254.7" r="10.7"/>
</g>
</svg>
