<?xml version="1.0" encoding="utf-8"?>
<!-- Generator: Adobe Illustrator 22.0.1, SVG Export Plug-In . SVG Version: 6.00 Build 0)  -->
<svg version="1.1" id="Layer_1" xmlns="http://www.w3.org/2000/svg" xmlns:xlink="http://www.w3.org/1999/xlink" x="0px" y="0px"
	 viewBox="0 0 400 400" style="enable-background:new 0 0 400 400;" xml:space="preserve">
<style type="text/css">
	.st0{fill:none;stroke:#231F20;stroke-width:2;stroke-miterlimit:10;}
</style>
<g id="XMLID_47_">
	<path id="XMLID_41_" class="st0" d="M2.5,200L2.5,200C2.5,144.7,47.7,99.5,103,99.5h194c55.3,0,100.5,45.2,100.5,100.5v0
		c0,55.3-45.2,100.5-100.5,100.5H103C47.7,300.5,2.5,255.3,2.5,200z"/>
	<path id="XMLID_42_" class="st0" d="M20.5,200L20.5,200c0-45.4,37.2-82.6,82.6-82.6h193.7c45.4,0,82.6,37.2,82.6,82.6v0
		c0,45.4-37.2,82.6-82.6,82.6H103.2C57.7,282.6,20.5,245.4,20.5,200z"/>
	<path id="XMLID_43_" class="st0" d="M38.1,200L38.1,200c0-36,29.5-65.5,65.5-65.5h192.8c36,0,65.5,29.5,65.5,65.5v0
		c0,36-29.5,65.5-65.5,65.5H103.6C67.6,265.5,38.1,236,38.1,200z"/>
	<circle id="XMLID_44_" class="st0" cx="242.3" cy="274.1" r="6.5"/>
	<circle id="XMLID_46_" class="st0" cx="156.9" cy="274.1" r="6.5"/>
	<circle id="XMLID_50_" class="st0" cx="242.3" cy="126.3" r="6.5"/>
	<circle id="XMLID_51_" class="st0" cx="326.5" cy="132.6" r="6.5"/>
	<circle id="XMLID_52_" class="st0" cx="326.5" cy="267.4" r="6.5"/>
	<circle id="XMLID_54_" class="st0" cx="72.7" cy="132.6" r="6.5"/>
	<circle id="XMLID_53_" class="st0" cx="72.7" cy="267.4" r="6.5"/>
	<circle id="XMLID_49_" class="st0" cx="156.9" cy="126.3" r="6.5"/>
	<circle id="XMLID_45_" class="st0" cx="29.1" cy="200" r="6.5"/>
	<circle id="XMLID_48_" class="st0" cx="370.4" cy="200" r="6.5"/>
</g>
</svg>
